<?xml version="1.0" encoding="utf-8"?>
<!-- Generator: Adobe Illustrator 23.1.0, SVG Export Plug-In . SVG Version: 6.00 Build 0)  -->
<svg version="1.1" id="Слой_1" xmlns="http://www.w3.org/2000/svg" xmlns:xlink="http://www.w3.org/1999/xlink" x="0px" y="0px"
	 viewBox="0 0 48 48" style="enable-background:new 0 0 48 48;" xml:space="preserve">
<style type="text/css">
	.st0{fill:#F1D046;}
</style>
<path class="st0" d="M45.5,35.9c-2.3-1.9-3.3-2.5-6.6-4.4c-1.2-0.8-3.3-1.5-4.4-1.5c-0.6,0-1.7,0.6-2.1,1c-1.5,1.5-1.9,3.1-4.2,3.1
	s-6.4-2.3-9.3-5.4c-3.3-3.1-5.6-7.3-5.6-9.5s1.7-2.9,3.1-4.2c0.6-0.6,1-1.5,1-2.1c0-1-0.6-3.1-1.5-4.4c-1.9-3.1-2.5-4.2-4.4-6.6
	c-0.6-0.8-1.5-1-2.3-1C8.2,1,6.3,1.6,5.3,2.4C3.4,3.7,1.7,5.5,1.1,7.8c0,0.2-0.2,0.6-0.2,0.8c0,2.3,0.8,4.8,1.9,6.6
	c2.3,4.8,5.4,9.3,8.7,13.5c1,1.2,2.3,2.5,3.5,3.7c1.2,1.2,2.5,2.3,3.7,3.5c4.2,3.3,8.7,6.4,13.5,8.7c2.1,1,4.4,1.9,6.6,1.9
	c0.4,0,0.6,0,1-0.2c2.3-0.4,3.9-2.3,5.4-4.2c0.8-1.2,1.5-2.9,1.5-4.2C46.6,37.1,46.2,36.5,45.5,35.9z"/>
</svg>
