<?xml version="1.0" encoding="utf-8"?>
<!-- Generator: Adobe Illustrator 23.1.0, SVG Export Plug-In . SVG Version: 6.00 Build 0)  -->
<svg version="1.1" id="Слой_1" xmlns="http://www.w3.org/2000/svg" xmlns:xlink="http://www.w3.org/1999/xlink" x="0px" y="0px"
	 viewBox="0 0 48 48" style="enable-background:new 0 0 48 48;" xml:space="preserve">
<style type="text/css">
	.st0{fill:none;stroke:#F1D046;stroke-miterlimit:10;}
</style>
<path class="st0" d="M45.1,35.6c-2.2-1.8-3.3-2.4-6.5-4.3c-1.2-0.8-3.3-1.4-4.3-1.4c-0.6,0-1.6,0.6-2,1c-1.4,1.4-1.8,3.1-4.1,3.1
	s-6.3-2.2-9.2-5.3c-3.3-3.1-5.5-7.1-5.5-9.4s1.6-2.9,3.1-4.1c0.6-0.6,1-1.4,1-2c0-1-0.6-3.1-1.4-4.3c-1.8-3.1-2.4-4.1-4.3-6.5
	c-0.6-0.8-1.4-1-2.2-1C8.5,1.4,6.6,2,5.6,2.8C3.8,4.1,2.2,5.9,1.5,8.1c0,0.2-0.2,0.6-0.2,0.8c0,2.2,0.8,4.7,1.8,6.5
	c2.2,4.7,5.3,9.2,8.6,13.2c1,1.2,2.2,2.4,3.5,3.7c1.2,1.2,2.4,2.2,3.7,3.5c4.1,3.3,8.6,6.3,13.2,8.6c2,1,4.3,1.8,6.5,1.8
	c0.4,0,0.6,0,1-0.2c2.2-0.4,3.9-2.2,5.3-4.1c0.8-1.2,1.4-2.9,1.4-4.1C46.1,36.8,45.7,36.2,45.1,35.6z"/>
</svg>
