<?xml version="1.0" encoding="utf-8"?>
<!-- Generator: Adobe Illustrator 23.1.0, SVG Export Plug-In . SVG Version: 6.00 Build 0)  -->
<svg version="1.1" id="Слой_1" xmlns="http://www.w3.org/2000/svg" xmlns:xlink="http://www.w3.org/1999/xlink" x="0px" y="0px"
	 viewBox="0 0 46.7 46.7" style="enable-background:new 0 0 46.7 46.7;" xml:space="preserve">
<style type="text/css">
	.st0{fill:none;stroke:#F1D046;stroke-miterlimit:10;}
	.st1{fill:#F1D046;}
</style>
<path class="st0" d="M23,2.1c-2.8,0-11.4,0-16.1,4.4C4,9.2,2.7,13.3,2.7,19.2v3.2c0,5.9,1.3,9.9,4.2,12.8c1.4,1.3,3.3,2.3,5.8,3.1
	l0.7,0.1V44c0,0.6,0.2,0.6,0.2,0.6c0.1,0,0.3,0,0.7-0.4c0.1-0.1,0.9-0.9,4.3-4.7l0.3-0.4h0.5c1.2,0.3,2.3,0.3,3.5,0.3
	c2.8,0,11.4,0,16.1-4.4c2.9-2.8,4.2-6.8,4.2-12.7v-3.2c0-5.9-1.3-9.9-4.2-12.8C34.4,2.1,25.8,2.1,23,2.1z"/>
<path class="st1" d="M33.1,27.6c-1.2-1-1.7-1.3-3.4-2.2c-0.6-0.4-1.7-0.7-2.2-0.7c-0.3,0-0.9,0.3-1.1,0.5c-0.7,0.7-1,1.6-2.1,1.6
	c-1.2,0-3.3-1.2-4.8-2.8c-1.7-1.6-2.9-3.7-2.9-4.9c0-1.2,0.9-1.5,1.6-2.1c0.3-0.3,0.5-0.7,0.5-1.1c0-0.5-0.3-1.6-0.7-2.2
	c-1-1.6-1.3-2.1-2.2-3.4c-0.3-0.4-0.7-0.5-1.2-0.5c-0.6,0-1.6,0.3-2.1,0.7c-1,0.6-1.8,1.6-2.1,2.8c0,0.1-0.1,0.3-0.1,0.4
	c0,1.2,0.4,2.5,1,3.4c1.2,2.5,2.8,4.8,4.5,6.9c0.5,0.6,1.2,1.3,1.8,1.9c0.6,0.6,1.3,1.2,1.9,1.8c2.1,1.7,4.5,3.3,6.9,4.5
	c1.1,0.5,2.2,1,3.4,1c0.2,0,0.3,0,0.5-0.1c1.2-0.2,2-1.2,2.8-2.1c0.4-0.6,0.7-1.5,0.7-2.1C33.7,28.2,33.5,27.9,33.1,27.6z
	 M33.7,22.4c-0.6,0-1.1-0.4-1.1-1.1v-1.1c0-5.3-4.3-9.6-9.6-9.6c-0.6,0-1.1-0.4-1.1-1.1s0.4-1.1,1.1-1.1c6.5,0,11.7,5.2,11.7,11.7
	v1.1C34.7,21.9,34.3,22.4,33.7,22.4z M27.2,20.2c-0.4,0-1-0.3-1.1-0.7c-0.3-1.2-1.2-2-2.2-2.2c-0.5-0.1-1-0.7-0.7-1.3
	c0.1-0.5,0.7-1,1.3-0.7c1.8,0.5,3.3,1.9,3.8,3.8c0.1,0.5-0.2,1.2-0.7,1.3C27.3,20.2,27.2,20.2,27.2,20.2z"/>
<path class="st1" d="M30.5,21.3c-0.6,0-1.1-0.4-1.1-1.1c0-3.4-2.7-6.2-6.1-6.4c-0.6,0-1.1-0.5-1-1.2c0-0.6,0.5-1.1,1.2-1
	c4.5,0.2,8.1,3.9,8.1,8.5C31.5,20.9,31.1,21.3,30.5,21.3z"/>
<path class="st1" d="M23.1,0.3c-5,0-12.7,0.4-17.4,4.7c-3.3,3.3-4.6,7.9-4.6,13.9c0,0.5,0,1.1,0,1.6s0,1.1,0,1.6
	c0,6,1.3,10.6,4.6,13.9c1.8,1.6,4.1,2.7,6.4,3.4v5c0,1.8,1.1,1.8,1.3,1.8l0,0c0.6,0,1-0.2,1.4-0.7c0.2-0.1,2.2-2.4,4.4-4.9
	c1.4,0.1,2.8,0.1,3.9,0.1l0,0l0,0c5,0,12.7-0.4,17.4-4.7c3.3-3.3,4.6-7.9,4.6-13.9c0-0.5,0-1.1,0-1.6s0-1.1,0-1.6
	c0-6-1.3-10.6-4.6-13.9C35.8,0.8,28.1,0.3,23.1,0.3z M41.9,21.9v0.3c0,5.4-1.1,9-3.6,11.5c-4.3,3.8-12.5,3.8-15.1,3.8
	c-0.8,0-2.1,0-3.7-0.1c-0.4,0.4-5.1,5.7-5.1,5.7v-6.5c-2.3-0.5-4.6-1.4-6.3-3c-2.5-2.5-3.6-6.1-3.6-11.5v-0.3c0-0.4,0-0.8,0-1.3
	c0-0.4,0-0.9,0-1.2v-0.4c0-5.4,1.1-9,3.6-11.5c4.3-3.8,12.5-3.8,15.1-3.8s10.8,0,15.1,3.8c2.5,2.5,3.6,6.1,3.6,11.5v0.3
	c0,0.4,0,0.8,0,1.3C41.9,21,41.9,21.5,41.9,21.9z"/>
</svg>
