<?xml version="1.0" encoding="utf-8"?>
<!-- Generator: Adobe Illustrator 23.1.0, SVG Export Plug-In . SVG Version: 6.00 Build 0)  -->
<svg version="1.1" id="Слой_1" xmlns="http://www.w3.org/2000/svg" xmlns:xlink="http://www.w3.org/1999/xlink" x="0px" y="0px"
	 viewBox="0 0 40 40" style="enable-background:new 0 0 40 40;" xml:space="preserve">
<style type="text/css">
	.st0{fill:#F1D046;}
</style>
<path class="st0" d="M20.2,1.4L20.2,1.4c5,0,9.6,1.9,13.2,5.4c3.5,3.5,5.4,8.1,5.4,13.1c0,10.2-8.3,18.5-18.6,18.5
	c-3.1,0-6.2-0.8-8.9-2.3l-0.4-0.2L10.5,36l-8.7,2.3l2.3-8.4l0.1-0.4L4,29.1c-1.6-2.8-2.5-6-2.5-9.3C1.6,9.7,9.9,1.4,20.2,1.4
	 M20.2,0.3C9.3,0.3,0.5,9.1,0.5,19.9c0,3.4,0.9,6.8,2.6,9.8L0.4,39.8L10.8,37c2.9,1.6,6.1,2.4,9.4,2.4h0c10.8,0,19.6-8.8,19.6-19.5
	c0-5.2-2-10.1-5.7-13.8C30.3,2.4,25.4,0.3,20.2,0.3L20.2,0.3z"/>
<path class="st0" d="M30.2,23.9c-0.5-0.3-3.1-1.6-3.6-1.7c-0.5-0.2-0.8-0.3-1.2,0.3c-0.4,0.5-1.4,1.7-1.7,2.1
	c-0.3,0.4-0.6,0.4-1.2,0.1c-0.5-0.3-2.2-0.8-4.3-2.6c-1.6-1.4-2.6-3.1-3-3.7c-0.3-0.5,0-0.8,0.2-1.1c0.2-0.2,0.5-0.6,0.8-0.9
	c0.3-0.3,0.4-0.5,0.5-0.9c0.2-0.4,0.1-0.7,0-0.9c-0.1-0.3-1.2-2.9-1.6-3.9c-0.4-1-0.9-0.9-1.2-0.9c-0.3,0-0.7,0-1,0
	c-0.4,0-0.9,0.1-1.4,0.7c-0.5,0.5-1.9,1.8-1.9,4.4s1.9,5.1,2.2,5.5c0.3,0.4,3.7,5.7,9.1,8c1.3,0.5,2.3,0.9,3,1.1
	c1.3,0.4,2.4,0.3,3.3,0.2c1-0.2,3.1-1.3,3.6-2.5c0.4-1.2,0.4-2.3,0.3-2.5C31.1,24.3,30.8,24.1,30.2,23.9z"/>
</svg>
