<?xml version="1.0" encoding="utf-8"?>
<!-- Generator: Adobe Illustrator 23.1.0, SVG Export Plug-In . SVG Version: 6.00 Build 0)  -->
<svg version="1.1" id="Слой_1" xmlns="http://www.w3.org/2000/svg" xmlns:xlink="http://www.w3.org/1999/xlink" x="0px" y="0px"
	 viewBox="0 0 49.5 47.5" style="enable-background:new 0 0 49.5 47.5;" xml:space="preserve">
<style type="text/css">
	.st0{fill:#F1D046;}
</style>
<path class="st0" d="M25,0.6C11.8,0.6,1.1,11,1.1,23.8S11.8,47,25,47s23.9-10.4,23.9-23.2S38.1,0.6,25,0.6z M25,2.2
	c12.3,0,22.2,9.7,22.2,21.6S37.2,45.4,25,45.4S2.7,35.7,2.7,23.8S12.7,2.2,25,2.2z M25,5.4c-10.5,0-19,8.3-19,18.4
	c0,0.4,0.4,0.8,0.8,0.8c0.5,0,0.8-0.4,0.8-0.8C7.7,14.5,15.4,7,25,7s17.3,7.5,17.3,16.8S34.5,40.6,25,40.6c-0.5,0-0.8,0.4-0.8,0.8
	s0.4,0.8,0.8,0.8c10.5,0,19-8.3,19-18.4S35.4,5.4,25,5.4z M32.7,14.2c-0.3,0-0.7,0-1,0.2c-0.6,0.2-17.1,7-17.7,7.2
	c-0.7,0.2-1.4,0.8-1.3,1.6c0.1,1,1.2,1.4,1.3,1.4l4,1.3c0.3,1.1,1.3,4,1.5,4.7c0.1,0.3,0.4,1.2,1,1.3c0.5,0.2,1,0,1.3-0.2l2.3-2.1
	l3.9,2.9l0.2,0.1c0.4,0.2,0.7,0.2,0.9,0.2c0.3,0,0.5-0.1,0.7-0.1c0.7-0.3,1-1,1.1-1.1l3.1-15.4c0.2-1-0.1-1.5-0.4-1.8
	C33.3,14.3,33,14.2,32.7,14.2z M32.4,15.8c0,0,0,0.1,0,0.2l-3,15.1c0,0-0.1,0.1-0.2,0.1c-0.1,0-0.2,0-0.3,0l-4.9-3.7L21,30.2
	l0.6-3.8c0,0,7.6-6.9,8-7.2c0.3-0.3,0.2-0.4,0.2-0.4c0-0.4-0.5-0.1-0.5-0.1l-10,6l0,0l-4.8-1.6c0,0,0,0,0,0c0,0,0.1,0,0.1,0
	C20.4,20.7,31.8,16,32.4,15.8C32.3,15.8,32.3,15.8,32.4,15.8z M8.5,27.8c-0.1,0-0.2,0-0.3,0l-1.6,0.5c-0.4,0.1-0.7,0.6-0.6,1
	c0.1,0.3,0.4,0.6,0.8,0.6c0.1,0,0.2,0,0.2,0l1.6-0.5c0.4-0.1,0.7-0.6,0.6-1C9.1,28.1,8.8,27.8,8.5,27.8z M10,31.6
	c-0.1,0-0.2,0-0.3,0.1l-1.4,0.8c-0.4,0.2-0.5,0.7-0.3,1.1C8.1,33.9,8.4,34,8.7,34c0.1,0,0.3,0,0.4-0.1l1.4-0.8
	c0.4-0.2,0.5-0.7,0.3-1.1C10.6,31.7,10.3,31.5,10,31.6z M12.7,34.8c-0.2,0-0.4,0.1-0.6,0.2L11,36.2c-0.3,0.3-0.3,0.8,0,1.1
	c0.2,0.2,0.4,0.2,0.6,0.2c0.2,0,0.4-0.1,0.6-0.2l1.2-1.1c0.3-0.3,0.3-0.8,0-1.1C13.1,34.9,12.9,34.8,12.7,34.8z M16.2,37.4
	c-0.3,0-0.6,0.1-0.8,0.4l-0.8,1.4c-0.2,0.4-0.1,0.9,0.3,1.1c0.1,0.1,0.3,0.1,0.4,0.1c0.3,0,0.6-0.1,0.7-0.4l0.8-1.4
	c0.2-0.4,0.1-0.9-0.3-1.1C16.4,37.4,16.3,37.4,16.2,37.4z M19.9,39.1c-0.3,0-0.6,0.2-0.7,0.6l-0.5,1.5c-0.1,0.4,0.1,0.9,0.6,1
	c0.1,0,0.2,0,0.2,0c0.4,0,0.7-0.2,0.8-0.6l0.5-1.5c0.1-0.4-0.1-0.9-0.6-1C20.1,39,20,39,19.9,39.1z"/>
</svg>
